<svg style="display: inline-block; vertical-align: middle;" width="20px" height="20px" viewBox="0 0 20 20" version="1.1" xmlns="http://www.w3.org/2000/svg" xmlns:xlink="http://www.w3.org/1999/xlink">
    <!-- Generator: Sketch 43.2 (39069) - http://www.bohemiancoding.com/sketch -->
    <desc>Created with Sketch.</desc>
    <defs></defs>
    <g id="Page-1" stroke="none" stroke-width="1" fill="none" fill-rule="evenodd">
        <g id="light2" transform="translate(-574.000000, -41.000000)" fill-rule="nonzero" fill="#4A4A4A">
            <g id="noun_656631_cc" transform="translate(574.000000, 41.000000)">
                <g id="Group">
                    <g>
                        <path d="M10.6930693,15.3861386 L1.14851485,15.3861386 L1.14851485,3.18811881 L4.37623762,3.18811881 L4.37623762,4.57425743 L5.52475248,4.57425743 L5.52475248,3.18811881 L10.8514851,3.18811881 L10.8514851,4.57425743 L12,4.57425743 L12,3.18811881 L15.2475248,3.18811881 L15.2475248,10.8316832 C15.4455446,10.8118812 15.6237624,10.7920792 15.8217822,10.7920792 C16.019802,10.7920792 16.1980198,10.8118812 16.3960396,10.8316832 L16.3960396,2.03960396 L12.019802,2.03960396 L12.019802,0 L10.8712871,0 L10.8712871,2.03960396 L5.52475248,2.03960396 L5.52475248,0 L4.37623762,0 L4.37623762,2.03960396 L0,2.03960396 L0,16.5346535 L10.6930693,16.5346535 C10.6732673,16.3366337 10.6534653,16.1584158 10.6534653,15.960396 C10.6534653,15.7623762 10.6732673,15.5643564 10.6930693,15.3861386 Z" id="Shape"></path>
                        <rect id="Rectangle-path" x="2.87128713" y="7.18811881" width="2.51485149" height="1.14851485"></rect>
                        <rect id="Rectangle-path" x="2.87128713" y="12.5346535" width="2.51485149" height="1.14851485"></rect>
                        <rect id="Rectangle-path" x="2.87128713" y="9.86138614" width="2.51485149" height="1.14851485"></rect>
                        <rect id="Rectangle-path" x="6.93069307" y="7.18811881" width="2.51485149" height="1.14851485"></rect>
                        <rect id="Rectangle-path" x="6.93069307" y="12.5346535" width="2.51485149" height="1.14851485"></rect>
                        <rect id="Rectangle-path" x="6.93069307" y="9.86138614" width="2.51485149" height="1.14851485"></rect>
                        <rect id="Rectangle-path" x="11.009901" y="7.18811881" width="2.51485149" height="1.14851485"></rect>
                        <rect id="Rectangle-path" x="11.009901" y="9.86138614" width="2.51485149" height="1.14851485"></rect>
                        <path d="M15.8217822,11.9405941 C13.6039604,11.9405941 11.8019802,13.7425743 11.8019802,15.960396 C11.8019802,18.1782178 13.6039604,19.980198 15.8217822,19.980198 C18.039604,19.980198 19.8415842,18.1782178 19.8415842,15.960396 C19.8415842,13.7425743 18.039604,11.9405941 15.8217822,11.9405941 Z M15.8217822,18.8316832 C14.2376238,18.8316832 12.950495,17.5445545 12.950495,15.960396 C12.950495,14.3762376 14.2376238,13.0891089 15.8217822,13.0891089 C17.4059406,13.0891089 18.6930693,14.3762376 18.6930693,15.960396 C18.6930693,17.5445545 17.4059406,18.8316832 15.8217822,18.8316832 Z" id="Shape"></path>
                        <polygon id="Shape" points="16.3960396 14.2574257 15.2475248 14.2574257 15.2475248 15.3861386 14.1188119 15.3861386 14.1188119 16.5346535 15.2475248 16.5346535 15.2475248 17.6633663 16.3960396 17.6633663 16.3960396 16.5346535 17.5247525 16.5346535 17.5247525 15.3861386 16.3960396 15.3861386"></polygon>
                    </g>
                </g>
            </g>
        </g>
    </g>
</svg>
